<svg id="visual" viewBox="0 0 900 600" width="900" height="600" preserveAspectRatio="none" xmlns="http://www.w3.org/2000/svg" xmlns:xlink="http://www.w3.org/1999/xlink" version="1.1"><path d="M0 103L15 95C30 87 60 71 90 74C120 77 150 99 180 110C210 121 240 121 270 118C300 115 330 109 360 104C390 99 420 95 450 84C480 73 510 55 540 48C570 41 600 45 630 54C660 63 690 77 720 84C750 91 780 91 810 90C840 89 870 87 885 86L900 85L900 0L885 0C870 0 840 0 810 0C780 0 750 0 720 0C690 0 660 0 630 0C600 0 570 0 540 0C510 0 480 0 450 0C420 0 390 0 360 0C330 0 300 0 270 0C240 0 210 0 180 0C150 0 120 0 90 0C60 0 30 0 15 0L0 0Z" fill="#31146d"></path><path d="M0 217L15 202C30 187 60 157 90 166C120 175 150 223 180 231C210 239 240 207 270 186C300 165 330 155 360 152C390 149 420 153 450 160C480 167 510 177 540 167C570 157 600 127 630 133C660 139 690 181 720 194C750 207 780 191 810 188C840 185 870 195 885 200L900 205L900 83L885 84C870 85 840 87 810 88C780 89 750 89 720 82C690 75 660 61 630 52C600 43 570 39 540 46C510 53 480 71 450 82C420 93 390 97 360 102C330 107 300 113 270 116C240 119 210 119 180 108C150 97 120 75 90 72C60 69 30 85 15 93L0 101Z" fill="#28155a"></path><path d="M0 259L15 244C30 229 60 199 90 206C120 213 150 257 180 262C210 267 240 233 270 213C300 193 330 187 360 188C390 189 420 197 450 204C480 211 510 217 540 204C570 191 600 159 630 168C660 177 690 227 720 238C750 249 780 221 810 212C840 203 870 213 885 218L900 223L900 203L885 198C870 193 840 183 810 186C780 189 750 205 720 192C690 179 660 137 630 131C600 125 570 155 540 165C510 175 480 165 450 158C420 151 390 147 360 150C330 153 300 163 270 184C240 205 210 237 180 229C150 221 120 173 90 164C60 155 30 185 15 200L0 215Z" fill="#211446"></path><path d="M0 289L15 278C30 267 60 245 90 250C120 255 150 287 180 293C210 299 240 279 270 261C300 243 330 227 360 227C390 227 420 243 450 256C480 269 510 279 540 269C570 259 600 229 630 233C660 237 690 275 720 284C750 293 780 273 810 268C840 263 870 273 885 278L900 283L900 221L885 216C870 211 840 201 810 210C780 219 750 247 720 236C690 225 660 175 630 166C600 157 570 189 540 202C510 215 480 209 450 202C420 195 390 187 360 186C330 185 300 191 270 211C240 231 210 265 180 260C150 255 120 211 90 204C60 197 30 227 15 242L0 257Z" fill="#1a1334"></path><path d="M0 391L15 396C30 401 60 411 90 410C120 409 150 397 180 400C210 403 240 421 270 424C300 427 330 415 360 418C390 421 420 439 450 442C480 445 510 433 540 425C570 417 600 413 630 418C660 423 690 437 720 444C750 451 780 451 810 438C840 425 870 399 885 386L900 373L900 281L885 276C870 271 840 261 810 266C780 271 750 291 720 282C690 273 660 235 630 231C600 227 570 257 540 267C510 277 480 267 450 254C420 241 390 225 360 225C330 225 300 241 270 259C240 277 210 297 180 291C150 285 120 253 90 248C60 243 30 265 15 276L0 287Z" fill="#191230"></path><path d="M0 433L15 440C30 447 60 461 90 461C120 461 150 447 180 445C210 443 240 453 270 460C300 467 330 471 360 480C390 489 420 503 450 499C480 495 510 473 540 465C570 457 600 463 630 471C660 479 690 489 720 494C750 499 780 499 810 489C840 479 870 459 885 449L900 439L900 371L885 384C870 397 840 423 810 436C780 449 750 449 720 442C690 435 660 421 630 416C600 411 570 415 540 423C510 431 480 443 450 440C420 437 390 419 360 416C330 413 300 425 270 422C240 419 210 401 180 398C150 395 120 407 90 408C60 409 30 399 15 394L0 389Z" fill="#1a1334"></path><path d="M0 481L15 487C30 493 60 505 90 504C120 503 150 489 180 483C210 477 240 479 270 487C300 495 330 509 360 518C390 527 420 531 450 527C480 523 510 511 540 504C570 497 600 495 630 500C660 505 690 517 720 520C750 523 780 517 810 504C840 491 870 471 885 461L900 451L900 437L885 447C870 457 840 477 810 487C780 497 750 497 720 492C690 487 660 477 630 469C600 461 570 455 540 463C510 471 480 493 450 497C420 501 390 487 360 478C330 469 300 465 270 458C240 451 210 441 180 443C150 445 120 459 90 459C60 459 30 445 15 438L0 431Z" fill="#211446"></path><path d="M0 553L15 552C30 551 60 549 90 555C120 561 150 575 180 574C210 573 240 557 270 555C300 553 330 565 360 570C390 575 420 573 450 570C480 567 510 563 540 564C570 565 600 571 630 575C660 579 690 581 720 574C750 567 780 551 810 544C840 537 870 539 885 540L900 541L900 449L885 459C870 469 840 489 810 502C780 515 750 521 720 518C690 515 660 503 630 498C600 493 570 495 540 502C510 509 480 521 450 525C420 529 390 525 360 516C330 507 300 493 270 485C240 477 210 475 180 481C150 487 120 501 90 502C60 503 30 491 15 485L0 479Z" fill="#28155a"></path><path d="M0 601L15 601C30 601 60 601 90 601C120 601 150 601 180 601C210 601 240 601 270 601C300 601 330 601 360 601C390 601 420 601 450 601C480 601 510 601 540 601C570 601 600 601 630 601C660 601 690 601 720 601C750 601 780 601 810 601C840 601 870 601 885 601L900 601L900 539L885 538C870 537 840 535 810 542C780 549 750 565 720 572C690 579 660 577 630 573C600 569 570 563 540 562C510 561 480 565 450 568C420 571 390 573 360 568C330 563 300 551 270 553C240 555 210 571 180 572C150 573 120 559 90 553C60 547 30 549 15 550L0 551Z" fill="#31146d"></path></svg>